<svg width="21" height="21" viewBox="0 0 21 21" fill="none" xmlns="http://www.w3.org/2000/svg">
<path d="M19.7422 19.77L13.7422 13.77M15.7422 8.77002C15.7422 9.68927 15.5611 10.5995 15.2093 11.4488C14.8576 12.2981 14.3419 13.0698 13.6919 13.7198C13.0419 14.3698 12.2703 14.8854 11.421 15.2372C10.5717 15.589 9.66144 15.77 8.74219 15.77C7.82293 15.77 6.91268 15.589 6.0634 15.2372C5.21412 14.8854 4.44245 14.3698 3.79244 13.7198C3.14243 13.0698 2.62681 12.2981 2.27503 11.4488C1.92325 10.5995 1.74219 9.68927 1.74219 8.77002C1.74219 6.9135 2.47969 5.13303 3.79244 3.82027C5.10519 2.50752 6.88567 1.77002 8.74219 1.77002C10.5987 1.77002 12.3792 2.50752 13.6919 3.82027C15.0047 5.13303 15.7422 6.9135 15.7422 8.77002Z" stroke="#95A3BB" stroke-width="2" stroke-linecap="round" stroke-linejoin="round"/>
</svg>
